<svg xmlns="http://www.w3.org/2000/svg" version="1.1" xmlns:xlink="http://www.w3.org/1999/xlink" xmlns:svgjs="http://svgjs.com/svgjs" width="1440" height="560" preserveAspectRatio="none" viewBox="0 0 1440 560"><g mask="url(&quot;#SvgjsMask1012&quot;)" fill="none"><path d="M1035.58-30.29C881.24-19.17 796.02 269.28 500.92 281.58 205.83 293.88 108.13 469.17-33.73 471.98" stroke="rgba(42, 151, 106, 0.32)" stroke-width="2"></path><path d="M639.29-75.45C523.39 9.44 600.67 430.09 388.98 441.82 177.29 453.55 17.24 319.52-111.65 318.62" stroke="rgba(42, 151, 106, 0.32)" stroke-width="2"></path><path d="M1188.88-80.47C989.7-44.04 893.11 453.68 581.61 455.45 270.1 457.22 139.16 203.1-25.67 197.85" stroke="rgba(42, 151, 106, 0.32)" stroke-width="2"></path><path d="M1089.49-63.25C922.71-62.77 774.91 52.06 433.1 55.93 91.29 59.8-46.56 314.29-223.29 319.13" stroke="rgba(42, 151, 106, 0.32)" stroke-width="2"></path><path d="M1251.55-0.54C1069.07 12.48 961.65 356.51 618.82 367.07 276 377.63 149.4 528.18-13.9 529.47" stroke="rgba(42, 151, 106, 0.32)" stroke-width="2"></path></g><defs><mask id="SvgjsMask1012"><rect width="1440" height="560" fill="#ffffff"></rect></mask></defs></svg>