<svg xmlns="http://www.w3.org/2000/svg" version="1.1" xmlns:xlink="http://www.w3.org/1999/xlink" xmlns:svgjs="http://svgjs.com/svgjs" width="1440" height="560" preserveAspectRatio="none" viewBox="0 0 1440 560"><g mask="url(&quot;#SvgjsMask1196&quot;)" fill="none"><path d="M -154.20631020456997,277 C -136.21,290.2 -100.21,359 -64.20631020456997,343 C -28.21,327 -10.21,187.6 25.793689795430026,197 C 61.79,206.4 79.79,393.8 115.79368979543003,390 C 151.79,386.2 169.79,190 205.79368979543003,178 C 241.79,166 259.79,321.8 295.79368979543005,330 C 331.79,338.2 349.79,217.4 385.79368979543005,219 C 421.79,220.6 439.79,344.2 475.79368979543005,338 C 511.79,331.8 529.79,185.4 565.79368979543,188 C 601.79,190.6 619.79,338.6 655.79368979543,351 C 691.79,363.4 709.79,242.2 745.79368979543,250 C 781.79,257.8 799.79,396.4 835.79368979543,390 C 871.79,383.6 889.79,227.8 925.79368979543,218 C 961.79,208.2 979.79,328.8 1015.79368979543,341 C 1051.79,353.2 1069.79,276.8 1105.79368979543,279 C 1141.79,281.2 1159.79,359.4 1195.79368979543,352 C 1231.79,344.6 1249.79,241 1285.79368979543,242 C 1321.79,243 1344.95,351 1375.79368979543,357 C 1406.63,363 1427.16,289 1440,272" stroke="rgba(42, 151, 106, 0.32)" stroke-width="2"></path><path d="M -69.57430875857041,212 C -51.57,237.4 -15.57,345.8 20.42569124142959,339 C 56.43,332.2 74.43,186.2 110.42569124142959,178 C 146.43,169.8 164.43,295.8 200.4256912414296,298 C 236.43,300.2 254.43,186 290.4256912414296,189 C 326.43,192 344.43,318.6 380.4256912414296,313 C 416.43,307.4 434.43,155.4 470.4256912414296,161 C 506.43,166.6 524.43,340.8 560.4256912414296,341 C 596.43,341.2 614.43,172.4 650.4256912414296,162 C 686.43,151.6 704.43,267 740.4256912414296,289 C 776.43,311 794.43,249.8 830.4256912414296,272 C 866.43,294.2 884.43,402.8 920.4256912414296,400 C 956.43,397.2 974.43,265.6 1010.4256912414296,258 C 1046.43,250.4 1064.43,358.2 1100.4256912414296,362 C 1136.43,365.8 1154.43,275.8 1190.4256912414296,277 C 1226.43,278.2 1244.43,384 1280.4256912414296,368 C 1316.43,352 1334.43,210 1370.4256912414296,197 C 1406.43,184 1446.51,301.2 1460.4256912414296,303 C 1474.34,304.8 1444.09,225.4 1440,206" stroke="rgba(42, 151, 106, 0.32)" stroke-width="2"></path><path d="M -78.96062218524978,196 C -60.96,224.2 -24.96,343.8 11.039377814750221,337 C 47.04,330.2 65.04,158.8 101.03937781475022,162 C 137.04,165.2 155.04,344 191.03937781475022,353 C 227.04,362 245.04,201.6 281.0393778147502,207 C 317.04,212.4 335.04,384.2 371.0393778147502,380 C 407.04,375.8 425.04,183.6 461.0393778147502,186 C 497.04,188.4 515.04,393.8 551.0393778147502,392 C 587.04,390.2 605.04,196.2 641.0393778147502,177 C 677.04,157.8 695.04,286.8 731.0393778147502,296 C 767.04,305.2 785.04,214.2 821.0393778147502,223 C 857.04,231.8 875.04,342.6 911.0393778147502,340 C 947.04,337.4 965.04,214.2 1001.0393778147502,210 C 1037.04,205.8 1055.04,308.8 1091.0393778147502,319 C 1127.04,329.2 1145.04,247 1181.0393778147502,261 C 1217.04,275 1235.04,391.4 1271.0393778147502,389 C 1307.04,386.6 1325.04,254.2 1361.0393778147502,249 C 1397.04,243.8 1435.25,359.2 1451.0393778147502,363 C 1466.83,366.8 1442.21,287 1440,268" stroke="rgba(42, 151, 106, 0.32)" stroke-width="2"></path><path d="M -83.54580544362847,335 C -65.55,316.4 -29.55,233 6.454194556371529,242 C 42.45,251 60.45,396.2 96.45419455637153,380 C 132.45,363.8 150.45,165.2 186.45419455637153,161 C 222.45,156.8 240.45,341 276.45419455637153,359 C 312.45,377 330.45,257.2 366.45419455637153,251 C 402.45,244.8 420.45,327.6 456.45419455637153,328 C 492.45,328.4 510.45,256 546.4541945563715,253 C 582.45,250 600.45,310.6 636.4541945563715,313 C 672.45,315.4 690.45,261.6 726.4541945563715,265 C 762.45,268.4 780.45,344.6 816.4541945563715,330 C 852.45,315.4 870.45,180.2 906.4541945563715,192 C 942.45,203.8 960.45,375.8 996.4541945563715,389 C 1032.45,402.2 1050.45,279.6 1086.4541945563715,258 C 1122.45,236.4 1140.45,285.2 1176.4541945563715,281 C 1212.45,276.8 1230.45,229.2 1266.4541945563715,237 C 1302.45,244.8 1320.45,317.6 1356.4541945563715,320 C 1392.45,322.4 1429.75,249.6 1446.4541945563715,249 C 1463.16,248.4 1441.29,303.4 1440,317" stroke="rgba(42, 151, 106, 0.32)" stroke-width="2"></path></g><defs><mask id="SvgjsMask1196"><rect width="1440" height="560" fill="#ffffff"></rect></mask></defs></svg>